<svg width="124" height="124" viewBox="0 0 124 124" fill="none" xmlns="http://www.w3.org/2000/svg">
<rect x="1.5" y="33.5" width="121" height="58" rx="8.5" fill="url(#paint0_linear_43_4)" stroke="white" stroke-width="3"/>
<path d="M34.4609 57.1602C33.7578 56.431 32.8984 55.8646 31.8828 55.4609C30.8672 55.0573 29.7734 54.8555 28.6016 54.8555C27.4688 54.8555 26.4401 55.0508 25.5156 55.4414C24.6042 55.819 23.8164 56.3724 23.1523 57.1016C22.5013 57.8307 21.9935 58.7031 21.6289 59.7188C21.2773 60.7344 21.1016 61.8802 21.1016 63.1562C21.1016 64.4583 21.2904 65.6432 21.668 66.7109C22.0456 67.7786 22.5859 68.6966 23.2891 69.4648C23.9922 70.2201 24.8255 70.806 25.7891 71.2227C26.7656 71.6393 27.8464 71.8477 29.0312 71.8477C29.9167 71.8477 30.724 71.7305 31.4531 71.4961C32.1823 71.2617 32.8268 70.9167 33.3867 70.4609C33.9466 70.0052 34.4219 69.4453 34.8125 68.7812C35.2031 68.1042 35.5026 67.3359 35.7109 66.4766H28.6992V60.6172H42.5078L42.7227 63.5664C42.7227 65.793 42.3841 67.8307 41.707 69.6797C41.043 71.5156 40.0924 73.0977 38.8555 74.4258C37.6185 75.7539 36.1406 76.7826 34.4219 77.5117C32.7161 78.2279 30.8151 78.5859 28.7188 78.5859C26.5312 78.5859 24.4935 78.2018 22.6055 77.4336C20.7305 76.6523 19.0833 75.5716 17.6641 74.1914C16.2578 72.7982 15.1576 71.1706 14.3633 69.3086C13.582 67.4466 13.1914 65.4349 13.1914 63.2734C13.1914 61.138 13.5755 59.1523 14.3438 57.3164C15.112 55.4805 16.1862 53.8724 17.5664 52.4922C18.9466 51.112 20.5547 50.0378 22.3906 49.2695C24.2396 48.5013 26.2383 48.1172 28.3867 48.1172C30.4049 48.1172 32.3711 48.4688 34.2852 49.1719C36.1992 49.875 37.918 50.8776 39.4414 52.1797L34.4609 57.1602Z" fill="white"/>
<path d="M55.5938 78.3906C53.6536 78.3906 51.9089 77.9479 50.3594 77.0625C48.8099 76.1771 47.5859 74.9727 46.6875 73.4492C45.8021 71.9128 45.3594 70.1745 45.3594 68.2344C45.3594 66.3073 45.8021 64.582 46.6875 63.0586C47.5859 61.5221 48.8099 60.3112 50.3594 59.4258C51.9089 58.5273 53.6536 58.0781 55.5938 58.0781C57.5339 58.0781 59.2721 58.5273 60.8086 59.4258C62.3451 60.3112 63.556 61.5221 64.4414 63.0586C65.3268 64.582 65.7695 66.3073 65.7695 68.2344C65.7695 70.1745 65.3268 71.9128 64.4414 73.4492C63.556 74.9727 62.3451 76.1771 60.8086 77.0625C59.2721 77.9479 57.5339 78.3906 55.5938 78.3906Z" fill="white"/>
<path d="M89.1289 78H69.207V48.7031H76.9414V71.2617H89.1289V78Z" fill="white"/>
<path d="M91.4727 78V48.7031H110.223V55.4414H99.207V59.9727H109.441V66.7109H99.207V78H91.4727Z" fill="white"/>
<path d="M51.5898 55.1172C50.9805 55.1172 50.4355 54.9863 49.9551 54.7246C49.4785 54.459 49.1035 54.0977 48.8301 53.6406C48.5566 53.1797 48.4199 52.6562 48.4199 52.0703C48.4199 51.4844 48.5566 50.9629 48.8301 50.5059C49.1035 50.0449 49.4785 49.6836 49.9551 49.4219C50.4355 49.1562 50.9805 49.0234 51.5898 49.0234C52.1992 49.0234 52.7402 49.1562 53.2129 49.4219C53.6895 49.6836 54.0625 50.0449 54.332 50.5059C54.6055 50.9629 54.7422 51.4844 54.7422 52.0703C54.7422 52.6562 54.6055 53.1797 54.332 53.6406C54.0625 54.0977 53.6895 54.459 53.2129 54.7246C52.7402 54.9863 52.1992 55.1172 51.5898 55.1172ZM51.584 53.3945C51.8105 53.3945 52.0137 53.3379 52.1934 53.2246C52.373 53.1113 52.5137 52.9531 52.6152 52.75C52.7207 52.5469 52.7734 52.3164 52.7734 52.0586C52.7734 51.8086 52.7207 51.584 52.6152 51.3848C52.5137 51.1855 52.373 51.0293 52.1934 50.916C52.0137 50.8027 51.8105 50.7461 51.584 50.7461C51.3535 50.7461 51.1484 50.8027 50.9688 50.916C50.7891 51.0293 50.6465 51.1855 50.541 51.3848C50.4395 51.584 50.3887 51.8086 50.3887 52.0586C50.3887 52.3164 50.4395 52.5469 50.541 52.75C50.6465 52.9531 50.7891 53.1113 50.9688 53.2246C51.1484 53.3379 51.3535 53.3945 51.584 53.3945ZM61.2051 54.3613C60.4746 54.8652 59.6797 55.1172 58.8203 55.1172C58.1719 55.1172 57.5879 54.9805 57.0684 54.707C56.5527 54.4297 56.1445 54.0547 55.8438 53.582C55.543 53.1094 55.3926 52.5742 55.3926 51.9766C55.3926 51.4102 55.5273 50.9062 55.7969 50.4648C56.0664 50.0195 56.4336 49.668 56.8984 49.4102C57.3672 49.1523 57.8965 49.0234 58.4863 49.0234C59.0996 49.0234 59.6387 49.166 60.1035 49.4512C60.5684 49.7363 60.9297 50.1328 61.1875 50.6406C61.4492 51.1445 61.5801 51.7305 61.5801 52.3984V52.5859H57.4551C57.5254 52.7773 57.6309 52.9473 57.7715 53.0957C57.916 53.2441 58.0957 53.3633 58.3105 53.4531C58.5254 53.5391 58.7715 53.582 59.0488 53.582C59.623 53.582 60.1621 53.3965 60.666 53.0254L61.2051 54.3613ZM57.373 51.7188H59.8105C59.7871 51.5 59.7207 51.3066 59.6113 51.1387C59.502 50.9707 59.3574 50.8398 59.1777 50.7461C59.002 50.6523 58.8047 50.6055 58.5859 50.6055C58.3633 50.6055 58.166 50.6562 57.9941 50.7578C57.8262 50.8555 57.6875 50.9883 57.5781 51.1562C57.4727 51.3203 57.4043 51.5078 57.373 51.7188Z" fill="white"/>
<defs>
<linearGradient id="paint0_linear_43_4" x1="-24.5" y1="66" x2="99.1234" y2="139.329" gradientUnits="userSpaceOnUse">
<stop stop-color="#13294C"/>
<stop offset="0.482984" stop-color="#1B3671"/>
<stop offset="0.483084" stop-color="#B42329"/>
<stop offset="1" stop-color="#B32329"/>
</linearGradient>
</defs>
</svg>
