<svg width="124" height="124" viewBox="0 0 124 124" fill="none" xmlns="http://www.w3.org/2000/svg">
<g clip-path="url(#clip0_45_12)">
<rect x="1.5" y="1.5" width="121" height="121" rx="8.5" fill="url(#paint0_linear_45_12)" stroke="white" stroke-width="3"/>
<path d="M44.2554 56.7167C43.6685 56.0944 42.9511 55.6111 42.1033 55.2667C41.2554 54.9222 40.3424 54.75 39.3641 54.75C38.4185 54.75 37.5598 54.9167 36.788 55.25C36.0272 55.5722 35.3696 56.0444 34.8152 56.6667C34.2717 57.2889 33.8478 58.0333 33.5435 58.9C33.25 59.7667 33.1033 60.7444 33.1033 61.8333C33.1033 62.9444 33.2609 63.9556 33.5761 64.8667C33.8913 65.7778 34.3424 66.5611 34.9293 67.2167C35.5163 67.8611 36.212 68.3611 37.0163 68.7167C37.8315 69.0722 38.7337 69.25 39.7228 69.25C40.462 69.25 41.1359 69.15 41.7446 68.95C42.3533 68.75 42.8913 68.4556 43.3587 68.0667C43.8261 67.6778 44.2228 67.2 44.5489 66.6333C44.875 66.0556 45.125 65.4 45.2989 64.6667H39.4457V59.6667H50.9728L51.1522 62.1833C51.1522 64.0833 50.8696 65.8222 50.3043 67.4C49.75 68.9667 48.9565 70.3167 47.9239 71.45C46.8913 72.5833 45.6576 73.4611 44.2228 74.0833C42.7989 74.6944 41.212 75 39.462 75C37.6359 75 35.9348 74.6722 34.3587 74.0167C32.7935 73.35 31.4185 72.4278 30.2337 71.25C29.0598 70.0611 28.1413 68.6722 27.4783 67.0833C26.8261 65.4944 26.5 63.7778 26.5 61.9333C26.5 60.1111 26.8207 58.4167 27.462 56.85C28.1033 55.2833 29 53.9111 30.1522 52.7333C31.3043 51.5556 32.6467 50.6389 34.1793 49.9833C35.7228 49.3278 37.3913 49 39.1848 49C40.8696 49 42.5109 49.3 44.1087 49.9C45.7065 50.5 47.1413 51.3556 48.413 52.4667L44.2554 56.7167Z" fill="white"/>
<path d="M84.3914 74.5H67.7609V49.5H74.2175V68.75H84.3914V74.5Z" fill="white"/>
<path d="M86.3479 74.5V49.5H102V55.25H92.8044V59.1167H101.348V64.8667H92.8044V74.5H86.3479Z" fill="white"/>
<path d="M64.6719 68.2988C64.6719 69.416 64.432 70.415 63.9522 71.2958C63.4652 72.1695 62.8028 72.857 61.9649 73.3583C61.1198 73.8596 60.1602 74.1103 59.086 74.1103C58.0117 74.1103 57.0557 73.8596 56.2178 73.3583C55.3727 72.857 54.7103 72.1695 54.2305 71.2958C53.7435 70.415 53.5 69.416 53.5 68.2988C53.5 67.1816 53.7435 66.1897 54.2305 65.3232C54.7103 64.4495 55.3727 63.7656 56.2178 63.2714C57.0557 62.7701 58.0117 62.5195 59.086 62.5195C60.1602 62.5195 61.1198 62.7701 61.9649 63.2714C62.8028 63.7656 63.4652 64.4495 63.9522 65.3232C64.432 66.1897 64.6719 67.1816 64.6719 68.2988ZM61.5137 68.3095C61.5137 67.8941 61.4099 67.5217 61.2022 67.1923C60.9945 66.8629 60.7045 66.6051 60.3321 66.4189C59.9597 66.2255 59.5371 66.1288 59.0645 66.1288C58.6061 66.1288 58.1944 66.2255 57.8291 66.4189C57.4639 66.6051 57.1774 66.8629 56.9697 67.1923C56.7621 67.5217 56.6582 67.8941 56.6582 68.3095C56.6582 68.732 56.7621 69.108 56.9697 69.4374C57.1774 69.7669 57.4639 70.0283 57.8291 70.2216C58.1944 70.4078 58.6061 70.5009 59.0645 70.5009C59.5371 70.5009 59.9597 70.4078 60.3321 70.2216C60.7045 70.0283 60.9945 69.7669 61.2022 69.4374C61.4099 69.108 61.5137 68.732 61.5137 68.3095Z" fill="white"/>
<path d="M63.2862 50.6708C64.21 52.01 64.6719 53.4674 64.6719 55.0429C64.6719 56.2317 64.4213 57.3023 63.92 58.2548C63.4115 59.2001 62.724 59.9485 61.8575 60.4999C60.9909 61.0514 60.0098 61.3271 58.9141 61.3271C57.8757 61.3271 56.9518 61.08 56.1426 60.5859C55.3262 60.0917 54.6816 59.4186 54.209 58.5663C53.7363 57.707 53.5 56.7366 53.5 55.6552C53.5 54.5309 53.7614 53.5426 54.2842 52.6904C54.807 51.8382 55.5339 51.1757 56.4649 50.7031C57.3887 50.2232 58.4629 49.9833 59.6875 49.9833H60.0313V57.5458C60.3822 57.4169 60.6937 57.2236 60.9659 56.9658C61.238 56.7008 61.4564 56.3714 61.6211 55.9775C61.7787 55.5836 61.8575 55.1324 61.8575 54.624C61.8575 53.5712 61.5173 52.5829 60.8369 51.6591L63.2862 50.6708ZM58.4414 57.6962V53.2275C58.0404 53.2704 57.6859 53.3922 57.378 53.5927C57.07 53.7932 56.8301 54.0582 56.6582 54.3876C56.4863 54.7099 56.4004 55.0715 56.4004 55.4726C56.4004 55.8808 56.4935 56.2424 56.6797 56.5576C56.8587 56.8655 57.1022 57.1197 57.4102 57.3202C57.711 57.5136 58.0547 57.6389 58.4414 57.6962Z" fill="white"/>
</g>
<defs>
<linearGradient id="paint0_linear_45_12" x1="-24.5" y1="69.1148" x2="122.9" y2="129.559" gradientUnits="userSpaceOnUse">
<stop stop-color="#13294C"/>
<stop offset="0.482984" stop-color="#1B3671"/>
<stop offset="0.483084" stop-color="#B42329"/>
<stop offset="1" stop-color="#B32329"/>
</linearGradient>
<clipPath id="clip0_45_12">
<rect width="124" height="124" rx="10" fill="white"/>
</clipPath>
</defs>
</svg>
